<svg width="22" height="21" viewBox="0 0 22 21" fill="none" xmlns="http://www.w3.org/2000/svg">
<path d="M10.1777 20.3555C9.75791 20.3555 9.33788 20.1953 9.01793 19.8748L0.814184 11.6711C0.173267 11.0301 0.173267 9.99186 0.814184 9.35094L9.01793 1.14719C9.65885 0.506274 10.6971 0.506274 11.3381 1.14719C11.979 1.78811 11.979 2.8264 11.3381 3.46731L4.29411 10.511L11.3391 17.556C11.98 18.1969 11.98 19.2352 11.3391 19.8761C11.0186 20.1966 10.5982 20.3555 10.1777 20.3555Z" fill="#6BAFB2"/>
<path opacity="0.4" d="M20.022 20.3555C19.6021 20.3555 19.1821 20.1953 18.8622 19.8748L10.6584 11.6711C10.0175 11.0301 10.0175 9.99186 10.6584 9.35094L18.8622 1.14719C19.5031 0.506274 20.5414 0.506274 21.1823 1.14719C21.8232 1.78811 21.8232 2.8264 21.1823 3.46731L14.1409 10.511L21.1859 17.556C21.8268 18.1969 21.8268 19.2352 21.1859 19.8761C20.8629 20.1966 20.4424 20.3555 20.022 20.3555Z" fill="#6BAFB2"/>
</svg>
