<svg width="20" height="20" viewBox="0 0 20 20" fill="none" xmlns="http://www.w3.org/2000/svg">
<path d="M2.5 9.16675C2.5 6.04197 2.5 4.47958 3.29576 3.38431C3.55276 3.03058 3.86383 2.71951 4.21756 2.46251C5.31283 1.66675 6.87522 1.66675 10 1.66675C13.1247 1.66675 14.6872 1.66675 15.7824 2.46251C16.1362 2.71951 16.4472 3.03058 16.7042 3.38431C17.5 4.47958 17.5 6.04197 17.5 9.16675V10.8334C17.5 13.9582 17.5 15.5206 16.7042 16.6158C16.4472 16.9696 16.1362 17.2807 15.7824 17.5377C14.6872 18.3334 13.1247 18.3334 10 18.3334C6.87522 18.3334 5.31283 18.3334 4.21756 17.5377C3.86383 17.2807 3.55276 16.9696 3.29576 16.6158C2.5 15.5206 2.5 13.9582 2.5 10.8334V9.16675Z" stroke="#0D834A" strokeWidth="1.25" strokeLinecap="round" strokeLinejoin="round"/>
<path d="M12.5002 7.91675H5.8335M8.3335 12.0834H5.8335" stroke="#0D834A" strokeWidth="1.25" strokeLinecap="round" strokeLinejoin="round"/>
</svg>
