<svg width="18" height="14" viewBox="0 0 18 14" fill="none" xmlns="http://www.w3.org/2000/svg">
<path d="M14.2786 0.505655C15.3567 0.236691 16.5119 0.783958 16.9204 1.84086L16.9893 2.0496C17.1238 2.53181 17.0683 2.98771 16.8303 3.40238C16.5807 3.83728 16.1572 4.17809 15.7017 4.47099V4.47172C15.0582 4.88536 14.3397 5.283 13.5645 5.9102L13.2283 6.19438C12.442 6.88786 11.666 7.71093 10.9526 8.54691L10.6509 8.9058C10.0588 9.61957 9.53275 10.3122 9.1062 10.8995L8.71362 11.4488C8.56195 11.6648 8.37846 11.9366 8.23169 12.1563C8.15867 12.2656 8.0952 12.3612 8.05005 12.4295C8.02747 12.4636 8.00963 12.4914 7.99731 12.51C7.99122 12.5193 7.98657 12.5265 7.9834 12.5313C7.98192 12.5335 7.98053 12.5352 7.97974 12.5364L7.979 12.5379L7.97827 12.5386C7.58913 13.148 6.9206 13.5229 6.19995 13.5596L6.0542 13.5625C5.32444 13.5533 4.64072 13.1972 4.2312 12.6038L4.15283 12.4815C3.52414 11.4253 3.04341 10.9668 2.81323 10.7881L2.73047 10.7281C2.58554 10.6307 2.43114 10.5513 2.24707 10.4571C2.07519 10.3691 1.86434 10.2622 1.67432 10.1238C1.47603 9.97945 1.28287 9.78917 1.14331 9.5225C1.00399 9.25627 0.937527 8.95033 0.9375 8.60038C0.9375 7.38483 1.95718 6.43773 3.16626 6.43754L3.1875 6.43827L3.33398 6.44706C4.06089 6.50628 4.71501 6.80003 5.26978 7.17289H5.26904C5.49802 7.32675 5.73059 7.51009 5.96851 7.72367C6.32962 7.24533 6.73563 6.72646 7.177 6.19438L7.51465 5.79374C8.31893 4.85092 9.24209 3.86414 10.229 2.99369L10.6523 2.63114C11.662 1.79149 12.8217 1.01359 14.0647 0.57084L14.2786 0.505655ZM2.0625 8.60038C2.06253 8.80634 2.10031 8.92623 2.1394 9.00102C2.17834 9.07541 2.23756 9.14215 2.33643 9.21415C2.44364 9.29221 2.5755 9.36154 2.75977 9.45585C2.93174 9.54387 3.14799 9.653 3.35815 9.79423L3.50244 9.89897C3.86956 10.1837 4.43785 10.7605 5.11963 11.9058L5.198 12.0201C5.39867 12.2728 5.71719 12.4332 6.06885 12.4375L6.21753 12.4302C6.55898 12.3909 6.85946 12.2033 7.03271 11.9292L7.03784 11.9212L7.03857 11.9204L7.03931 11.919C7.04016 11.9177 7.04134 11.9156 7.04297 11.9131C7.04628 11.9081 7.05135 11.9007 7.05762 11.8912C7.07026 11.872 7.08884 11.8439 7.11182 11.8091C7.15772 11.7397 7.22219 11.6426 7.29639 11.5315C7.44439 11.31 7.63357 11.0291 7.79297 10.802L8.1958 10.2388C8.63382 9.63577 9.17487 8.92376 9.78516 8.18803L10.0957 7.81815C10.8326 6.95443 11.6466 6.08938 12.4841 5.35063L12.8525 5.03935C13.7067 4.34873 14.5094 3.89987 15.093 3.5247L15.2402 3.42729C15.5637 3.20418 15.7567 3.013 15.8547 2.84208C15.9332 2.70534 15.9663 2.55795 15.9038 2.3433L15.8708 2.24662C15.6662 1.71712 15.0327 1.42021 14.4419 1.63065V1.62992C13.3689 2.01213 12.3267 2.70244 11.3752 3.4932L10.9731 3.83744C10.0376 4.6626 9.15231 5.60739 8.37158 6.5225L8.04346 6.91288C7.45435 7.62305 6.92788 8.3103 6.49072 8.90653C6.39196 9.0411 6.23839 9.12476 6.07178 9.13505C5.90508 9.1453 5.74247 9.0808 5.62793 8.95927C5.27702 8.58671 4.94598 8.31096 4.64209 8.10673V8.106C4.16579 7.78588 3.6645 7.58315 3.15308 7.56254C2.52821 7.56943 2.0625 8.05285 2.0625 8.60038Z" fill="#6BAFB2"/>
</svg>
