<svg width="20" height="21" viewBox="0 0 20 21" fill="none" xmlns="http://www.w3.org/2000/svg">
<path d="M9.99967 10.5C11.7834 10.5 13.3709 11.3322 14.4007 12.6257C14.7772 12.4651 15.1912 12.375 15.6255 12.375C17.3513 12.3751 18.7505 13.7742 18.7505 15.5C18.7505 15.5842 18.7473 15.6679 18.7407 15.7507C18.7211 15.9969 18.5579 16.2081 18.3249 16.2902C17.4794 16.5879 16.5707 16.75 15.6255 16.75C15.6136 16.75 15.6016 16.7492 15.5897 16.7492C15.5675 16.9471 15.4532 17.1229 15.2804 17.222L14.9858 17.3848C13.4985 18.1765 11.8005 18.625 9.99967 18.625C8.19879 18.625 6.50091 18.1766 5.01351 17.3848L4.71891 17.222L4.65706 17.1813C4.51898 17.0786 4.42822 16.9224 4.40885 16.7492C4.39774 16.7492 4.38662 16.75 4.37549 16.75C3.43024 16.75 2.52154 16.5879 1.67611 16.2902C1.4431 16.2081 1.27986 15.9969 1.26025 15.7507L1.88363 15.701V15.7002L1.26025 15.7507C1.25367 15.6679 1.25049 15.5842 1.25049 15.5C1.25049 13.7741 2.6496 12.375 4.37549 12.375C4.8089 12.375 5.2219 12.4649 5.59782 12.6248C6.6276 11.3314 8.21601 10.5001 9.99967 10.5ZM9.99967 11.75C8.45085 11.7501 7.0898 12.5547 6.31152 13.7715C5.88092 14.4448 5.62904 15.2434 5.62467 16.1022C5.62464 16.1097 5.62467 16.1175 5.62467 16.125C5.62467 16.1823 5.62738 16.2392 5.62956 16.2959C6.93395 16.9846 8.42036 17.375 9.99967 17.375C11.5791 17.375 13.0653 16.9838 14.3698 16.2951C14.3719 16.2387 14.3747 16.182 14.3747 16.125C14.3747 16.1168 14.3747 16.1092 14.3747 16.1022C14.3703 15.2436 14.1191 14.4447 13.6886 13.7715C12.9103 12.5545 11.5487 11.75 9.99967 11.75ZM4.37549 13.625C3.42642 13.625 2.64358 14.3303 2.51921 15.2453C3.10921 15.4103 3.73142 15.5 4.37549 15.5C4.38689 15.5 4.39828 15.4992 4.40967 15.4992C4.4801 14.8637 4.65639 14.2596 4.92074 13.7056C4.74841 13.6533 4.56548 13.625 4.37549 13.625ZM15.6255 13.625C15.4349 13.625 15.2514 13.6538 15.0786 13.7064C15.3428 14.2603 15.5193 14.8639 15.5897 15.4992C15.6016 15.4992 15.6136 15.5 15.6255 15.5C16.2693 15.5 16.8912 15.4102 17.481 15.2453C17.3565 14.3304 16.5745 13.6251 15.6255 13.625ZM5.62467 8.625C5.62467 7.93464 5.06503 7.375 4.37467 7.375C3.68441 7.37511 3.12467 7.93471 3.12467 8.625C3.12467 9.31529 3.68441 9.87489 4.37467 9.875C5.06503 9.875 5.62467 9.31536 5.62467 8.625ZM16.8747 8.625C16.8747 7.93464 16.315 7.375 15.6247 7.375C14.9344 7.37511 14.3747 7.93471 14.3747 8.625C14.3747 9.31529 14.9344 9.87489 15.6247 9.875C16.315 9.875 16.8747 9.31536 16.8747 8.625ZM11.8747 6.125C11.8747 5.08947 11.0352 4.25 9.99967 4.25C8.96423 4.25011 8.12467 5.08953 8.12467 6.125C8.12467 7.16047 8.96423 7.99989 9.99967 8C11.0352 8 11.8747 7.16053 11.8747 6.125ZM6.87467 8.625C6.87467 10.0057 5.75539 11.125 4.37467 11.125C2.99406 11.1249 1.87467 10.0056 1.87467 8.625C1.87467 7.24436 2.99406 6.12511 4.37467 6.125C5.75539 6.125 6.87467 7.24429 6.87467 8.625ZM18.1247 8.625C18.1247 10.0057 17.0054 11.125 15.6247 11.125C14.2441 11.1249 13.1247 10.0056 13.1247 8.625C13.1247 7.24436 14.2441 6.12511 15.6247 6.125C17.0054 6.125 18.1247 7.24429 18.1247 8.625ZM13.1247 6.125C13.1247 7.85089 11.7256 9.25 9.99967 9.25C8.27388 9.24989 6.87467 7.85082 6.87467 6.125C6.87467 4.39918 8.27388 3.00011 9.99967 3C11.7256 3 13.1247 4.39911 13.1247 6.125Z" fill="#6BAFB2"/>
</svg>
