<svg width="52" height="52" viewBox="0 0 52 52" fill="none" xmlns="http://www.w3.org/2000/svg">
<g filter="url(#filter0_d_23001_551)">
<rect x="10" y="4" width="36" height="36" rx="18" fill="white" shape-rendering="crispEdges"/>
<path d="M37.25 21.5664C37.2498 16.7286 33.1395 12.75 28 12.75C22.8604 12.75 18.7502 16.7286 18.75 21.5664C18.75 23.8954 19.6968 26.0163 21.2529 27.5967L21.4268 27.79C21.8204 28.268 22.1156 28.9358 21.9746 29.6836V29.6855C21.8707 30.2309 21.6906 30.7553 21.4473 31.2471C22.3421 31.2264 23.2281 30.9966 24.0225 30.5742L24.584 30.2842C24.7282 30.2157 24.9087 30.1382 25.1035 30.1084L25.2441 30.0947C25.3833 30.0883 25.5158 30.1014 25.6309 30.1172C25.7884 30.1388 25.9822 30.1761 26.2041 30.2178L26.6494 30.29C27.0964 30.3526 27.5473 30.3844 27.999 30.3838H28L28.4785 30.3721C33.3924 30.1342 37.25 26.2533 37.25 21.5664ZM38.75 21.5664C38.75 27.2948 33.9047 31.8828 28 31.8828C27.4781 31.8835 26.9574 31.8476 26.4414 31.7754L25.9268 31.6914C25.6897 31.6468 25.5388 31.6189 25.4268 31.6035C25.3819 31.5974 25.353 31.5919 25.3359 31.5908C25.3624 31.5861 25.3427 31.584 25.2275 31.6387L24.7275 31.8984C23.2958 32.6598 21.6248 32.9295 20.0137 32.6299C19.7537 32.5814 19.5385 32.3996 19.4473 32.1514C19.3561 31.903 19.4025 31.6252 19.5693 31.4199C20.0373 30.8443 20.3588 30.1507 20.501 29.4043C20.5343 29.2249 20.4714 28.9898 20.2764 28.752L20.1846 28.6494C18.3698 26.8066 17.25 24.3141 17.25 21.5664C17.2502 15.8382 22.0953 11.25 28 11.25C33.9046 11.25 38.7498 15.8382 38.75 21.5664Z" fill="#64748B"/>
<path d="M24.0088 21L24.1113 21.0049C24.6155 21.0561 25.0088 21.4823 25.0088 22C25.0088 22.5177 24.6155 22.9439 24.1113 22.9951L24.0088 23H24C23.4477 23 23 22.5523 23 22C23 21.4477 23.4477 21 24 21H24.0088ZM28.0049 21L28.1064 21.0049C28.6109 21.0559 29.0049 21.4821 29.0049 22C29.0049 22.5179 28.6109 22.9441 28.1064 22.9951L28.0049 23H27.9951C27.443 22.9998 26.9951 22.5522 26.9951 22C26.9951 21.4478 27.443 21.0002 27.9951 21H28.0049ZM32 21C32.5523 21 33 21.4477 33 22C33 22.5523 32.5523 23 32 23H31.9912C31.4389 23 30.9912 22.5523 30.9912 22C30.9912 21.4477 31.4389 21 31.9912 21H32Z" fill="#64748B"/>
<circle cx="35" cy="14" r="2.5" fill="#2D2D2D" stroke="white"/>
</g>
<defs>
<filter id="filter0_d_23001_551" x="0" y="0" width="52" height="52" filterUnits="userSpaceOnUse" color-interpolation-filters="sRGB">
<feFlood flood-opacity="0" result="BackgroundImageFix"/>
<feColorMatrix in="SourceAlpha" type="matrix" values="0 0 0 0 0 0 0 0 0 0 0 0 0 0 0 0 0 0 127 0" result="hardAlpha"/>
<feOffset dx="-2" dy="4"/>
<feGaussianBlur stdDeviation="4"/>
<feComposite in2="hardAlpha" operator="out"/>
<feColorMatrix type="matrix" values="0 0 0 0 0.0509804 0 0 0 0 0.580392 0 0 0 0 0.533333 0 0 0 0.06 0"/>
<feBlend mode="normal" in2="BackgroundImageFix" result="effect1_dropShadow_23001_551"/>
<feBlend mode="normal" in="SourceGraphic" in2="effect1_dropShadow_23001_551" result="shape"/>
</filter>
</defs>
</svg>
