<svg width="52" height="52" viewBox="0 0 52 52" fill="none" xmlns="http://www.w3.org/2000/svg">
<g filter="url(#filter0_d_23001_556)">
<rect x="10" y="4" width="36" height="36" rx="18" fill="white" shape-rendering="crispEdges"/>
<path d="M30.2459 27.8984C29.5059 27.965 28.7568 28 27.9998 28C27.2426 28 26.493 27.9651 25.7527 27.8984C25.7512 27.9321 25.7498 27.9659 25.7498 28C25.7498 29.2426 26.7572 30.25 27.9998 30.25C29.2424 30.25 30.2498 29.2426 30.2498 28C30.2498 27.9659 30.2474 27.9321 30.2459 27.8984ZM36.868 25.2695C37.0344 25.4543 37.0983 25.7098 37.0389 25.9512C36.9793 26.1926 36.8043 26.3894 36.5711 26.4756L36.3113 25.7715L36.868 25.2695ZM33.2498 19C33.2498 16.1005 30.8993 13.75 27.9998 13.75C25.1003 13.75 22.7498 16.1005 22.7498 19V19.75C22.7498 21.8587 22.0765 23.8101 20.9383 25.4053C22.318 25.8446 23.7528 26.1616 25.2312 26.3369C26.1387 26.4445 27.0627 26.5 27.9998 26.5C28.9369 26.5 29.8608 26.4446 30.7683 26.3369C32.2461 26.1616 33.6803 25.8453 35.0594 25.4062C33.9212 23.8111 33.2498 21.8587 33.2498 19.75V19ZM34.7498 19.75C34.7498 21.873 35.5506 23.8071 36.868 25.2695L36.3103 25.7705L36.5711 26.4756C35.0267 27.0457 33.4094 27.4645 31.7381 27.7178C31.745 27.811 31.7498 27.9051 31.7498 28C31.7498 30.0711 30.0709 31.75 27.9998 31.75C25.9287 31.75 24.2498 30.0711 24.2498 28C24.2498 27.9055 24.2536 27.8117 24.2605 27.7188C22.5894 27.4654 20.9727 27.0456 19.4285 26.4756C19.1951 26.3894 19.0193 26.1927 18.9598 25.9512C18.9003 25.7098 18.9643 25.4542 19.1307 25.2695C20.3659 23.8984 21.1473 22.1129 21.24 20.1455L21.2498 19.75V19C21.2498 15.2721 24.2719 12.25 27.9998 12.25C31.7277 12.25 34.7498 15.2721 34.7498 19V19.75Z" fill="#64748B"/>
<circle cx="31" cy="14" r="2.5" fill="#2D2D2D" stroke="white"/>
</g>
<defs>
<filter id="filter0_d_23001_556" x="0" y="0" width="52" height="52" filterUnits="userSpaceOnUse" color-interpolation-filters="sRGB">
<feFlood flood-opacity="0" result="BackgroundImageFix"/>
<feColorMatrix in="SourceAlpha" type="matrix" values="0 0 0 0 0 0 0 0 0 0 0 0 0 0 0 0 0 0 127 0" result="hardAlpha"/>
<feOffset dx="-2" dy="4"/>
<feGaussianBlur stdDeviation="4"/>
<feComposite in2="hardAlpha" operator="out"/>
<feColorMatrix type="matrix" values="0 0 0 0 0.0509804 0 0 0 0 0.580392 0 0 0 0 0.533333 0 0 0 0.06 0"/>
<feBlend mode="normal" in2="BackgroundImageFix" result="effect1_dropShadow_23001_556"/>
<feBlend mode="normal" in="SourceGraphic" in2="effect1_dropShadow_23001_556" result="shape"/>
</filter>
</defs>
</svg>
