<svg width="20" height="21" viewBox="0 0 20 21" fill="none" xmlns="http://www.w3.org/2000/svg">
<path d="M2.5 10.5V14.6667M2.5 14.6667H4.16667C5.34517 14.6667 5.93443 14.6667 6.30055 15.0328C6.66667 15.3989 6.66667 15.9882 6.66667 17.1667V18M2.5 14.6667V18" stroke="#FF9200" strokeWidth="1.25" strokeLinecap="round" strokeLinejoin="round"/>
<path d="M3.33325 6.33333L7.76385 3.90287C8.86109 3.30096 9.40975 3 9.99992 3C10.5901 3 11.1388 3.30096 12.236 3.90287L16.6666 6.33333" stroke="#FF9200" strokeWidth="1.25" strokeLinecap="round" strokeLinejoin="round"/>
<path d="M15 5.5V8.83333M5 5.5V8.83333" stroke="#FF9200" strokeWidth="1.25" strokeLinecap="round" strokeLinejoin="round"/>
<path d="M17.4999 10.5V14.6667M17.4999 14.6667H15.8333C14.6548 14.6667 14.0655 14.6667 13.6993 15.0328C13.3333 15.3989 13.3333 15.9882 13.3333 17.1667V18M17.4999 14.6667V18" stroke="#FF9200" strokeWidth="1.25" strokeLinecap="round" strokeLinejoin="round"/>
<path d="M5.83325 12.1667H9.99992M9.99992 12.1667H14.1666M9.99992 12.1667V18.0001M9.99992 18.0001H9.16659M9.99992 18.0001H10.8333" stroke="#FF9200" strokeWidth="1.25" strokeLinecap="round" strokeLinejoin="round"/>
</svg>
