<svg width="25" height="24" viewBox="0 0 25 24" fill="none" xmlns="http://www.w3.org/2000/svg">
<path d="M13.341 15.1L12.5 13L11.659 15.1L9.5 15.292L11.14 16.781L10.646 19L12.5 17.821L14.354 19L13.86 16.781L15.5 15.292L13.341 15.1ZM6.5 2H18.5V4H6.5V2ZM4.5 6H20.5V8H4.5V6Z" fill="#52C41A"/>
<path d="M20.5 12V20H4.5V12H20.5ZM20.5 10H4.5C3.96957 10 3.46086 10.2107 3.08579 10.5858C2.71071 10.9609 2.5 11.4696 2.5 12V20C2.5 20.5304 2.71071 21.0391 3.08579 21.4142C3.46086 21.7893 3.96957 22 4.5 22H20.5C21.0304 22 21.5391 21.7893 21.9142 21.4142C22.2893 21.0391 22.5 20.5304 22.5 20V12C22.5 11.4696 22.2893 10.9609 21.9142 10.5858C21.5391 10.2107 21.0304 10 20.5 10Z" fill="#52C41A"/>
</svg>
