<svg width="20" height="21" viewBox="0 0 20 21" fill="none" xmlns="http://www.w3.org/2000/svg">
<path d="M12.5 13C12.5 13.6903 13.0597 14.25 13.75 14.25C14.4403 14.25 15 13.6903 15 13C15 12.3097 14.4403 11.75 13.75 11.75C13.0597 11.75 12.5 12.3097 12.5 13Z" stroke="#35C2CF" strokeWidth="1.25"/>
<path d="M2.5 10.5V5.5C4.25392 6.01778 7.98016 6.68893 12.5032 7.00234C14.9377 7.17104 16.1549 7.25538 16.8274 7.98073C17.5 8.70608 17.5 9.87475 17.5 12.2122V13.8903C17.5 16.2972 17.5 17.5007 16.6802 18.2498C15.8604 18.9989 14.7432 18.8898 12.5088 18.6715C11.9643 18.6183 11.4038 18.555 10.8333 18.4802" stroke="#35C2CF" strokeWidth="1.25" strokeLinecap="round" strokeLinejoin="round"/>
<path d="M14.6882 7.16675C15.0029 5.98069 15.2877 3.8236 14.4392 2.75251C13.9013 2.07364 13.1019 2.13886 12.3182 2.2078C8.19826 2.57013 5.28787 3.30617 3.66084 3.80622C2.96123 4.02125 2.5 4.70443 2.5 5.46711" stroke="#35C2CF" strokeWidth="1.25" strokeLinejoin="round"/>
<path d="M9.16667 15.5001H5.83333M5.83333 15.5001H2.5M5.83333 15.5001V18.8334M5.83333 15.5001V12.1667" stroke="#35C2CF" strokeWidth="1.25" strokeLinecap="round"/>
</svg>
